<?xml version="1.0" standalone="no"?>
<!DOCTYPE svg PUBLIC "-//W3C//DTD SVG 20010904//EN"
 "http://www.w3.org/TR/2001/REC-SVG-20010904/DTD/svg10.dtd">
<svg version="1.0" xmlns="http://www.w3.org/2000/svg"
 width="2300.000000pt" height="2300.000000pt" viewBox="0 0 2300.000000 2300.000000"
 preserveAspectRatio="xMidYMid meet">

<g transform="translate(0.000000,2300.000000) scale(0.100000,-0.100000)"
fill="#000000" stroke="none">
<path d="M11491 21988 c-1177 -2212 -6511 -12254 -6511 -12260 0 -4 452 -8
1005 -8 797 0 1005 -3 1005 -12 0 -10 209 -12 1021 -9 l1022 3 -49 -89 c-27
-49 -339 -610 -694 -1247 l-645 -1157 -2019 3 -2019 3 -1529 -2794 c-840
-1537 -1528 -2797 -1528 -2800 0 -4 26 -21 59 -39 l59 -32 1076 0 1075 0 16
30 15 30 1526 2 1526 3 405 725 c223 399 411 739 417 755 5 17 314 569 684
1228 l674 1197 3545 -2 3545 -3 504 -895 c278 -492 539 -953 581 -1025 137
-234 1176 -1950 1191 -1967 14 -17 92 -18 1369 -18 l1353 0 17 -35 17 -35
1024 0 c856 0 1023 2 1020 14 -2 7 -653 1262 -1447 2790 l-1444 2776 -398 0
-399 0 0 45 0 45 -1492 2 -1492 3 -674 1205 c-370 663 -682 1222 -693 1244
l-20 38 1908 -7 c1049 -3 1920 -3 1935 2 l27 8 -215 478 c-117 262 -213 481
-211 486 3 11 -6066 11431 -6075 11431 -4 0 -34 -51 -67 -112z m1843 -6970
c1001 -2125 1821 -3866 1823 -3870 2 -5 -396 -8 -884 -8 l-888 0 -885 1585
c-487 872 -887 1585 -890 1585 -3 0 -403 -714 -889 -1585 l-884 -1585 -950 0
c-899 0 -949 1 -944 18 2 9 81 205 175 435 94 230 169 424 166 431 -3 8 707
1525 1577 3372 870 1848 1595 3387 1611 3422 15 34 32 62 36 62 4 0 826 -1738
1826 -3862z m-1504 -3572 c105 -186 189 -340 187 -343 -2 -2 -180 -2 -396 -1
l-391 3 118 210 c65 116 153 272 196 348 43 76 82 135 86 130 5 -4 94 -161
200 -347z m1668 -2960 c391 -695 712 -1267 712 -1270 0 -3 -1164 -6 -2586 -6
-1634 0 -2584 4 -2582 10 2 5 323 576 713 1269 l710 1261 1160 0 1160 0 713
-1264z m-6831 -3024 c-17 -32 -320 -574 -672 -1205 l-640 -1147 -843 0 -844 0
25 43 c13 23 304 555 647 1182 342 627 629 1150 636 1163 l14 22 855 0 855 0
-33 -58z m12083 -1124 c338 -651 620 -1193 628 -1205 l14 -23 -763 0 -764 1
-671 1204 -672 1205 807 0 807 0 614 -1182z"/>
</g>
</svg>
